<svg width="383" height="363" viewBox="0 0 383 363" fill="none" xmlns="http://www.w3.org/2000/svg">
<g clip-path="url(#clip0_15_2)">
<rect width="383" height="363" fill="white"/>
<rect x="60.1577" y="77.2241" width="140.921" height="124.244" rx="13" fill="#4D3F73"/>
<rect x="53.5264" y="107.86" width="114.395" height="86.8004" rx="13" fill="white"/>
<rect x="40" y="140" width="128" height="87" fill="white"/>
<path d="M45.5 77H141V138H40L45.5 77Z" fill="white"/>
<path d="M166.832 226.829L166.902 195.376L93.5364 195.438L58.3043 226.991L166.832 226.829Z" fill="#4D3F73"/>
<path d="M248.406 175.53C248.406 205.609 230.641 242.961 202.714 242.961C145.779 223.383 139.605 209.605 147.275 175.53C147.275 145.451 169.914 165.318 197.841 165.318C225.767 165.318 248.406 145.451 248.406 175.53Z" fill="white"/>
<rect x="308.842" y="223.594" width="140.921" height="124.244" rx="13" transform="rotate(-180 308.842 223.594)" fill="#4D3F73"/>
<rect x="330" y="224" width="146" height="124" rx="13" transform="rotate(-180 330 224)" fill="#B0ACB3"/>
<rect x="316.474" y="192.958" width="114.395" height="86.8004" rx="13" transform="rotate(-180 316.474 192.958)" fill="white"/>
<rect x="394" y="165" width="192" height="165" transform="rotate(-180 394 165)" fill="white"/>
<rect x="343" y="225" width="114" height="63" transform="rotate(-180 343 225)" fill="white"/>
<path d="M322.276 244.868C322.276 275.417 305.574 303.586 235.943 300.182C163.892 254.71 258.611 280.033 284.035 259.025C292.239 252.246 289.821 238.484 282.098 231.162C255.306 205.761 183.374 238.626 272.539 192.107C294.057 192.107 322.276 214.319 322.276 244.868Z" fill="#B0ACB3"/>
<path d="M144.052 77.2241L144.052 107.86L80.2235 107.86L49.5524 77.2241L144.052 77.2241Z" fill="#4D3F73"/>
<path d="M79.4375 300.317L113.689 268.744L246.852 268.696L246.842 300.256L79.4375 300.317Z" fill="#B0ACB3"/>
<path d="M202.908 224L202.908 192.107L272.54 192.107L272 224L202.908 224Z" fill="#B0ACB3"/>
<path d="M93.8191 267.472L58.3512 299.558L58.3512 225.563L93.8191 195.226L93.8191 267.472Z" fill="#4D3F73"/>
<path d="M203.932 76.1865L203.993 106.823L283.449 106.956L321.569 76.3839L203.932 76.1865Z" fill="#B0ACB3"/>
<path d="M216.596 89.8667C221.556 102.456 218.601 126.91 213.641 128.986C208.682 131.061 200.846 104.705 203.673 91.5625C199.445 69.0925 180.558 74.1731 185.096 69.5165C187.811 66.7305 211.637 77.2773 216.596 89.8667Z" fill="white"/>
<path d="M184.025 81.5193C184.025 79.9607 184.857 78.5208 186.208 77.7434C187.046 77.2615 188.019 77.0716 188.976 77.2036L191.587 77.5638C197.555 78.3869 202 83.4871 202 89.5112V111.012C202 115.976 197.976 120 193.012 120C188.049 120 184.025 115.976 184.025 111.012V81.5193Z" fill="#B0ACB3"/>
<path d="M189 77.2639C189.664 77.2639 190.327 77.341 190.973 77.4936L191 77.4999L192 77.7499L192.468 77.867C192.822 77.9554 193.164 78.0821 193.49 78.245C194.495 78.7473 195.452 79.3389 196.35 80.0128L196.653 80.2396C196.883 80.4124 197.091 80.6138 197.271 80.8388L197.603 81.2538C198.532 82.4146 199.335 83.6703 200 84.9999L201 86.9999L189 81.9999V77.2639Z" fill="#B0ACB3"/>
</g>
<defs>
<clipPath id="clip0_15_2">
<rect width="383" height="363" fill="white"/>
</clipPath>
</defs>
</svg>
